<?xml version="1.0" encoding="utf-8"?>
<!-- Generator: Adobe Illustrator 27.0.0, SVG Export Plug-In . SVG Version: 6.00 Build 0)  -->
<svg version="1.1" id="outlines" xmlns="http://www.w3.org/2000/svg" xmlns:xlink="http://www.w3.org/1999/xlink" x="0px" y="0px"
	 viewBox="0 0 701.4 130" style="enable-background:new 0 0 701.4 130;" xml:space="preserve">
<style type="text/css">
	.st0{fill:#FF6A00;}
</style>
<g>
	<g>
		<path class="st0" d="M123,75.2V54.5h-10v-8.4h10V34.6h9.5v11.4h11.9v8.4h-11.9V73c0,2.6,1,3.7,3.7,3.7h8.2v8.4H133
			C126.1,85.1,123,82.3,123,75.2z"/>
		<path class="st0" d="M152.3,29.1h9.5v20c2.5-2.8,6.2-4.2,10.6-4.2c9.6,0,15.5,6.1,15.5,16.6v23.6h-9.5V62.5c0-6.1-2.9-9-7.9-9
			c-5.2,0-8.6,3.7-8.6,9.3v22.3h-9.5V29.1z"/>
		<path class="st0" d="M193.5,46.1h9.9l7.6,28.4l7.6-28.4h11l7.6,28.4l7.6-28.4h9.9l-11.7,39h-11.3l-7.6-28.3l-7.7,28.3h-11.3
			L193.5,46.1z"/>
		<path class="st0" d="M258.5,73.8h9.8c0.3,3.3,3.1,4.9,7.9,4.9c4.3,0,7-1.8,7-4.7c0-2.5-1.9-3.8-5.4-4.1l-6.2-0.6
			c-7.3-0.8-11.8-5.1-11.8-11.8c0-7.8,6.2-12.6,16.2-12.6c9.8,0,16.1,4.2,16.6,12.3H283c-0.2-3.1-2.9-4.6-7.2-4.6
			c-4.1,0-6.6,1.6-6.6,4.3c0,2.3,1.8,3.6,5.8,4.1l6.3,0.7c7.4,0.9,11.6,5.2,11.6,11.7c0,7.8-6.5,12.9-16.9,12.9
			C265.3,86.3,258.9,82,258.5,73.8z"/>
	</g>
	<g>
		<path class="st0" d="M35,52.5h2.6c1.1,0,2-0.9,2-2v-9.1c0-1.1,0.9-2,2-2h15.6c1.1,0,2-0.9,2-2v-2.6c0-1.1-0.9-2-2-2H41.5
			c-1.1,0-2,0.9-2,2v2.6c0,1.1-0.9,2-2,2H35c-1.1,0-2,0.9-2,2v9.1C33,51.6,33.9,52.5,35,52.5z"/>
		<path class="st0" d="M83.1,19.9H67.5c-1.1,0-2,0.9-2,2v2.6c0,1.1,0.9,2,2,2h15.6c1.1,0,2-0.9,2-2v-2.6
			C85.1,20.8,84.2,19.9,83.1,19.9z"/>
		<path class="st0" d="M96.1,32.9h-2.6c-1.1,0-2,0.9-2,2V44c0,1.1,0.9,2,2,2h2.6c1.1,0,2-0.9,2-2v-9.1
			C98.1,33.8,97.2,32.9,96.1,32.9z"/>
		<path class="st0" d="M96.1,52.5h-2.6c-1.1,0-2,0.9-2,2V57c0,1.1,0.9,2,2,2h2.6c1.1,0,2-0.9,2-2v-2.6
			C98.1,53.3,97.2,52.5,96.1,52.5z"/>
		<path class="st0" d="M72.1,54.4c0-1.1-0.9-2-2-2h-2.6c-1.1,0-2,0.9-2,2v22.1c0,1.1-0.9,2-2,2h-9.1c-1.1,0-2-0.9-2-2V54.4
			c0-1.1,0.9-2,2-2h2.6c1.1,0,2-0.9,2-2v-2.6c0-1.1-0.9-2-2-2h-2.6c-1.1,0-2,0.9-2,2v2.6c0,1.1-0.9,2-2,2H48c-1.1,0-2,0.9-2,2V83
			c0,1.1,0.9,2,2,2h15.6c1.1,0,2-0.9,2-2v-2.6c0-1.1,0.9-2,2-2h2.6c1.1,0,2-0.9,2-2V54.4z"/>
		<path class="st0" d="M83.1,32.9H67.5c-1.1,0-2,0.9-2,2v2.6c0,1.1,0.9,2,2,2h9.1c1.1,0,2,0.9,2,2V57c0,1.1,0.9,2,2,2h2.6
			c1.1,0,2-0.9,2-2V34.9C85.1,33.8,84.2,32.9,83.1,32.9z"/>
		<path class="st0" d="M83.1,65.5h-2.6c-1.1,0-2,0.9-2,2v22.1c0,1.1-0.9,2-2,2H74c-1.1,0-2,0.9-2,2v2.6c0,1.1,0.9,2,2,2h2.6
			c1.1,0,2-0.9,2-2v-2.6c0-1.1,0.9-2,2-2h2.6c1.1,0,2-0.9,2-2V67.4C85.1,66.4,84.2,65.5,83.1,65.5z"/>
		<path class="st0" d="M63.6,91.5H41.5c-1.1,0-2-0.9-2-2V67.4c0-1.1-0.9-2-2-2H35c-1.1,0-2,0.9-2,2v22.1c0,1.1,0.9,2,2,2h2.6
			c1.1,0,2,0.9,2,2v2.6c0,1.1,0.9,2,2,2h22.1c1.1,0,2-0.9,2-2v-2.6C65.5,92.4,64.7,91.5,63.6,91.5z"/>
		<path class="st0" d="M50.6,104.5H35c-1.1,0-2,0.9-2,2v2.6c0,1.1,0.9,2,2,2h15.6c1.1,0,2-0.9,2-2v-2.6
			C52.5,105.4,51.7,104.5,50.6,104.5z"/>
		<path class="st0" d="M24.6,78.5H22c-1.1,0-2,0.9-2,2v9.1c0,1.1,0.9,2,2,2h2.6c1.1,0,2-0.9,2-2v-9.1C26.5,79.4,25.6,78.5,24.6,78.5
			z"/>
	</g>
	<g>
		<path class="st0" d="M314.6,48.3h-4.3V46h11.1v2.3h-4.3V60h-2.5V48.3z"/>
		<path class="st0" d="M320.7,55.1c0-3.1,2-5.1,4.8-5.1c2.9,0,4.7,1.9,4.7,5c0,0.3,0,0.7-0.1,1.1h-7.1c0.1,1.5,1.1,2.3,2.5,2.3
			c1,0,1.7-0.5,2-1.2h2.4c-0.6,1.9-2.1,3.1-4.5,3.1C322.7,60.3,320.7,58.2,320.7,55.1z M327.8,54.1L327.8,54.1
			c0-1.3-0.9-2.2-2.3-2.2c-1.4,0-2.4,0.9-2.4,2.2H327.8z"/>
		<path class="st0" d="M331.6,55.2c0-3.1,2-5.2,5-5.2c2.5,0,4.3,1.5,4.5,3.6h-2.4c-0.2-0.8-0.9-1.5-2.1-1.5c-1.5,0-2.5,1.2-2.5,3
			c0,1.9,1,3,2.5,3c1.1,0,1.9-0.7,2.1-1.7h2.4c-0.3,2-1.9,3.8-4.6,3.8C333.5,60.3,331.6,58.1,331.6,55.2z"/>
		<path class="st0" d="M342.9,46h2.4v5c0.6-0.7,1.6-1.1,2.6-1.1c2.4,0,3.9,1.5,3.9,4.2V60h-2.4v-5.7c0-1.5-0.7-2.2-2-2.2
			c-1.3,0-2.2,0.9-2.2,2.3V60h-2.4V46z"/>
		<path class="st0" d="M354.2,50.2h2.1v1.1c0.6-1,1.7-1.4,2.9-1.4c2.4,0,3.9,1.5,3.9,4.2V60h-2.4v-5.7c0-1.5-0.7-2.2-2-2.2
			c-1.3,0-2.2,0.9-2.2,2.3V60h-2.4V50.2z"/>
		<path class="st0" d="M365.4,46.1h2.6v2.4h-2.6V46.1z M365.5,50.2h2.4V60h-2.4V50.2z"/>
		<path class="st0" d="M369.8,55.2c0-3.1,2-5.2,5-5.2c2.5,0,4.3,1.5,4.5,3.6h-2.4c-0.2-0.8-0.9-1.5-2.1-1.5c-1.5,0-2.5,1.2-2.5,3
			c0,1.9,1,3,2.5,3c1.1,0,1.9-0.7,2.1-1.7h2.4c-0.3,2-1.9,3.8-4.6,3.8C371.7,60.3,369.8,58.1,369.8,55.2z"/>
		<path class="st0" d="M380.5,57.2c0-1.8,1.2-3,3.6-3.2l2.7-0.2v-0.5c0-1-0.5-1.5-1.7-1.5c-1.1,0-1.6,0.3-1.8,1.1H381
			c0.2-2,1.6-3.1,4.3-3.1c2.4,0,3.8,1.2,3.8,3.3v4.5c0,0.2,0.1,0.3,0.3,0.3h0.9V60h-1.8c-0.7,0-1.1-0.4-1.1-1v-0.1
			c-0.6,0.9-1.7,1.4-3.1,1.4C381.9,60.3,380.5,59.1,380.5,57.2z M384.5,58.3c1.3,0,2.3-0.7,2.3-2.1v-0.5l-2.4,0.2
			c-1,0.1-1.5,0.6-1.5,1.3C382.9,57.9,383.4,58.3,384.5,58.3z"/>
		<path class="st0" d="M391.7,58.1V46h2.4v11.2c0,0.5,0.2,0.7,0.7,0.7h1.1V60h-2.1C392.4,60,391.7,59.5,391.7,58.1z"/>
		<path class="st0" d="M402.5,54.7V46h2.5v8.6c0,2.2,1.1,3.4,3,3.4c1.9,0,3-1.2,3-3.4V46h2.5v8.7c0,3.5-2.1,5.6-5.5,5.6
			C404.6,60.3,402.5,58.2,402.5,54.7z"/>
		<path class="st0" d="M416.1,50.2h2.1v1.1c0.6-1,1.7-1.4,2.9-1.4c2.4,0,3.9,1.5,3.9,4.2V60h-2.4v-5.7c0-1.5-0.7-2.2-2-2.2
			c-1.3,0-2.2,0.9-2.2,2.3V60h-2.4V50.2z"/>
		<path class="st0" d="M427.3,46.1h2.6v2.4h-2.6V46.1z M427.4,50.2h2.4V60h-2.4V50.2z"/>
		<path class="st0" d="M431.2,50.2h2.7l2.7,7.2l2.7-7.2h2.6l-4,9.8h-2.7L431.2,50.2z"/>
		<path class="st0" d="M442.3,55.1c0-3.1,2-5.1,4.8-5.1c2.9,0,4.7,1.9,4.7,5c0,0.3,0,0.7-0.1,1.1h-7.1c0.1,1.5,1.1,2.3,2.5,2.3
			c1,0,1.7-0.5,2-1.2h2.4c-0.6,1.9-2.1,3.1-4.5,3.1C444.3,60.3,442.3,58.2,442.3,55.1z M449.5,54.1L449.5,54.1
			c0-1.3-0.9-2.2-2.3-2.2c-1.4,0-2.4,0.9-2.4,2.2H449.5z"/>
		<path class="st0" d="M453.9,50.2h2.1v1.7c0.2-1.1,1-1.7,2.2-1.7h1.8v2.1h-2.1c-1.2,0-1.7,0.6-1.7,1.8V60h-2.4V50.2z"/>
		<path class="st0" d="M460.8,57.2h2.5c0.1,0.8,0.8,1.2,2,1.2c1.1,0,1.7-0.5,1.7-1.2c0-0.6-0.5-0.9-1.3-1l-1.6-0.2
			c-1.8-0.2-3-1.3-3-2.9c0-1.9,1.6-3.1,4-3.1c2.5,0,4,1,4.1,3.1H467c0-0.8-0.7-1.1-1.8-1.1c-1,0-1.7,0.4-1.7,1.1
			c0,0.6,0.5,0.9,1.4,1l1.6,0.2c1.8,0.2,2.9,1.3,2.9,2.9c0,2-1.6,3.2-4.2,3.2C462.5,60.3,460.9,59.2,460.8,57.2z"/>
		<path class="st0" d="M471.3,46.1h2.6v2.4h-2.6V46.1z M471.4,50.2h2.4V60h-2.4V50.2z"/>
		<path class="st0" d="M477.6,57.5v-5.2h-2.5v-2.1h2.5v-2.9h2.4v2.9h3v2.1h-3V57c0,0.6,0.2,0.9,0.9,0.9h2.1V60h-2.9
			C478.4,60,477.6,59.3,477.6,57.5z"/>
		<path class="st0" d="M484.3,61.5h1.9c0.6,0,0.9-0.2,1.1-0.7l0.7-1.6l-4-9h2.7l2.6,6.3l2.6-6.3h2.7l-5.3,11.8c-0.4,1-1,1.5-2.4,1.5
			h-2.5V61.5z"/>
		<path class="st0" d="M500.1,55.1c0-3.1,2.1-5.2,5.1-5.2c3,0,5.1,2.1,5.1,5.2s-2.1,5.2-5.1,5.2C502.2,60.3,500.1,58.2,500.1,55.1z
			 M505.2,58.1c1.6,0,2.6-1.2,2.6-3c0-1.8-1.1-3-2.6-3c-1.6,0-2.6,1.2-2.6,3C502.6,56.9,503.6,58.1,505.2,58.1z"/>
		<path class="st0" d="M516.5,46h3.3v2.1H517c-0.6,0-1,0.3-1,0.9v1.2h3.1v2.1H516V60h-2.4v-7.7h-2.5v-2.1h2.5v-1.5
			C513.6,47,514.7,46,516.5,46z"/>
		<path class="st0" d="M529.7,46h3.4l5.2,14h-2.7l-1.3-3.8h-5.7l-1.3,3.8h-2.7L529.7,46z M533.4,53.9l-2-5.8l-2,5.8H533.4z"/>
		<path class="st0" d="M539.9,50.2h2.1v1.2c0.6-0.9,1.8-1.5,3.2-1.5c2.8,0,4.7,2.1,4.7,5.2s-1.9,5.2-4.7,5.2c-1.3,0-2.3-0.5-2.9-1.3
			v4.6h-2.4V50.2z M544.8,58.1c1.5,0,2.6-1.2,2.6-3c0-1.8-1.1-3-2.6-3c-1.6,0-2.6,1.2-2.6,3C542.2,56.9,543.2,58.1,544.8,58.1z"/>
		<path class="st0" d="M551.8,50.2h2.1v1.2c0.6-0.9,1.8-1.5,3.2-1.5c2.8,0,4.7,2.1,4.7,5.2s-1.9,5.2-4.7,5.2c-1.3,0-2.3-0.5-2.9-1.3
			v4.6h-2.4V50.2z M556.8,58.1c1.5,0,2.6-1.2,2.6-3c0-1.8-1.1-3-2.6-3c-1.6,0-2.6,1.2-2.6,3C554.2,56.9,555.2,58.1,556.8,58.1z"/>
		<path class="st0" d="M563.8,58.1V46h2.4v11.2c0,0.5,0.2,0.7,0.7,0.7h1.1V60h-2.1C564.5,60,563.8,59.5,563.8,58.1z"/>
		<path class="st0" d="M569.4,46.1h2.6v2.4h-2.6V46.1z M569.5,50.2h2.4V60h-2.4V50.2z"/>
		<path class="st0" d="M573.8,55.1c0-3.1,2-5.1,4.8-5.1c2.9,0,4.7,1.9,4.7,5c0,0.3,0,0.7-0.1,1.1h-7.1c0.1,1.5,1.1,2.3,2.5,2.3
			c1,0,1.7-0.5,2-1.2h2.4c-0.6,1.9-2.1,3.1-4.5,3.1C575.8,60.3,573.8,58.2,573.8,55.1z M581,54.1L581,54.1c0-1.3-0.9-2.2-2.3-2.2
			c-1.4,0-2.4,0.9-2.4,2.2H581z"/>
		<path class="st0" d="M584.8,55.1c0-3.1,1.9-5.2,4.7-5.2c1.2,0,2.3,0.5,2.9,1.3V46h2.4v14h-2.1v-1.2c-0.6,0.9-1.8,1.5-3.2,1.5
			C586.7,60.3,584.8,58.2,584.8,55.1z M589.9,58.1c1.5,0,2.6-1.2,2.6-3c0-1.8-1-3-2.6-3c-1.6,0-2.6,1.2-2.6,3
			C587.3,56.9,588.3,58.1,589.9,58.1z"/>
		<path class="st0" d="M601.6,55.7h2.5c0,1.5,1.2,2.4,3.2,2.4c1.7,0,2.8-0.8,2.8-2.2c0-1.1-0.7-1.7-2.2-1.9l-1.7-0.2
			c-2.8-0.4-4.1-1.7-4.1-3.9c0-2.5,2.1-4.2,5.1-4.2c3.2,0,5.2,1.6,5.2,4.1H610c-0.1-1.2-1.1-1.9-2.7-1.9c-1.6,0-2.6,0.7-2.6,1.8
			c0,1,0.7,1.6,2.3,1.8l1.6,0.2c2.7,0.3,4.1,1.7,4.1,4.1c0,2.8-2,4.5-5.3,4.5C603.8,60.3,601.7,58.6,601.6,55.7z"/>
		<path class="st0" d="M614.3,55.2c0-3.1,2-5.2,5-5.2c2.5,0,4.3,1.5,4.5,3.6h-2.4c-0.2-0.8-0.9-1.5-2.1-1.5c-1.5,0-2.5,1.2-2.5,3
			c0,1.9,1,3,2.5,3c1.1,0,1.9-0.7,2.1-1.7h2.4c-0.3,2-1.9,3.8-4.6,3.8C616.1,60.3,614.3,58.1,614.3,55.2z"/>
		<path class="st0" d="M625.4,46.1h2.6v2.4h-2.6V46.1z M625.5,50.2h2.4V60h-2.4V50.2z"/>
		<path class="st0" d="M629.8,55.1c0-3.1,2-5.1,4.8-5.1c2.9,0,4.7,1.9,4.7,5c0,0.3,0,0.7-0.1,1.1h-7.1c0.1,1.5,1.1,2.3,2.5,2.3
			c1,0,1.7-0.5,2-1.2h2.4c-0.6,1.9-2.1,3.1-4.5,3.1C631.8,60.3,629.8,58.2,629.8,55.1z M637,54.1L637,54.1c0-1.3-0.9-2.2-2.3-2.2
			c-1.4,0-2.4,0.9-2.4,2.2H637z"/>
		<path class="st0" d="M641.3,50.2h2.1v1.1c0.6-1,1.7-1.4,2.9-1.4c2.4,0,3.9,1.5,3.9,4.2V60h-2.4v-5.7c0-1.5-0.7-2.2-2-2.2
			c-1.3,0-2.2,0.9-2.2,2.3V60h-2.4V50.2z"/>
		<path class="st0" d="M652.1,55.2c0-3.1,2-5.2,5-5.2c2.5,0,4.3,1.5,4.5,3.6h-2.4c-0.2-0.8-0.9-1.5-2.1-1.5c-1.5,0-2.5,1.2-2.5,3
			c0,1.9,1,3,2.5,3c1.1,0,1.9-0.7,2.1-1.7h2.4c-0.3,2-1.9,3.8-4.6,3.8C653.9,60.3,652.1,58.1,652.1,55.2z"/>
		<path class="st0" d="M662.8,55.1c0-3.1,2-5.1,4.8-5.1c2.9,0,4.7,1.9,4.7,5c0,0.3,0,0.7-0.1,1.1h-7.1c0.1,1.5,1.1,2.3,2.5,2.3
			c1,0,1.7-0.5,2-1.2h2.4c-0.6,1.9-2.1,3.1-4.5,3.1C664.7,60.3,662.8,58.2,662.8,55.1z M669.9,54.1L669.9,54.1
			c0-1.3-0.9-2.2-2.3-2.2c-1.4,0-2.4,0.9-2.4,2.2H669.9z"/>
		<path class="st0" d="M673.5,57.2h2.5c0.1,0.8,0.8,1.2,2,1.2c1.1,0,1.7-0.5,1.7-1.2c0-0.6-0.5-0.9-1.3-1l-1.6-0.2
			c-1.8-0.2-3-1.3-3-2.9c0-1.9,1.6-3.1,4-3.1c2.5,0,4,1,4.1,3.1h-2.4c0-0.8-0.7-1.1-1.8-1.1c-1,0-1.7,0.4-1.7,1.1
			c0,0.6,0.5,0.9,1.4,1l1.6,0.2c1.8,0.2,2.9,1.3,2.9,2.9c0,2-1.6,3.2-4.2,3.2C675.2,60.3,673.6,59.2,673.5,57.2z"/>
		<path class="st0" d="M310.4,71h2.6l2.5,10.7l2.5-10.7h2.7l2.5,10.6l2.5-10.6h2.7L325,85h-2.9l-2.6-10.6L317,85H314L310.4,71z"/>
		<path class="st0" d="M329.7,81.1v-5.9h2.4v5.7c0,1.5,0.7,2.2,1.9,2.2c1.3,0,2.1-0.9,2.1-2.3v-5.6h2.4V85h-2.1v-0.9
			c-0.6,0.8-1.7,1.2-2.8,1.2C331.1,85.3,329.7,83.8,329.7,81.1z M331.3,71.1h2.2v2.3h-2.2V71.1z M334.7,71.1h2.2v2.3h-2.2V71.1z"/>
		<path class="st0" d="M340.9,75.2h2.1v1.7c0.2-1.1,1-1.7,2.2-1.7h1.8v2.1H345c-1.2,0-1.7,0.6-1.7,1.8V85h-2.4V75.2z"/>
		<path class="st0" d="M348.2,82.9l5.2-5.6h-5.1v-2.1h8.3v2.1l-5.2,5.6h5.4V85h-8.6V82.9z"/>
		<path class="st0" d="M360.8,83.8V85h-2.1V71h2.4v5.2c0.6-0.8,1.7-1.3,2.9-1.3c2.8,0,4.7,2.1,4.7,5.2s-1.9,5.2-4.7,5.2
			C362.6,85.3,361.4,84.8,360.8,83.8z M363.6,83.1c1.5,0,2.6-1.2,2.6-3c0-1.8-1.1-3-2.6-3c-1.6,0-2.6,1.2-2.6,3
			C361,81.9,362,83.1,363.6,83.1z"/>
		<path class="st0" d="M370.5,81.1v-5.9h2.4v5.7c0,1.5,0.7,2.2,1.9,2.2c1.3,0,2.1-0.9,2.1-2.3v-5.6h2.4V85h-2.1v-0.9
			c-0.6,0.8-1.7,1.2-2.8,1.2C371.9,85.3,370.5,83.8,370.5,81.1z"/>
		<path class="st0" d="M381.7,75.2h2.1v1.7c0.2-1.1,1-1.7,2.2-1.7h1.8v2.1h-2.1c-1.2,0-1.7,0.6-1.7,1.8V85h-2.4V75.2z"/>
		<path class="st0" d="M388.4,86.1c0-0.8,0.4-1.5,1.2-2c-0.5-0.4-0.9-0.9-0.9-1.6c0-0.8,0.5-1.6,1.6-1.9c-0.8-0.6-1.2-1.5-1.2-2.4
			c0-1.9,1.4-3.3,4-3.3c1.6,0,2.9,0.8,3.3,1.8v-0.3c0-1,0.6-1.2,1.2-1.2h1.4v2.1h-1.6c-0.2,0-0.4,0.1-0.4,0.4v0.7
			c0,2-1.6,3.3-3.8,3.3h-1.6c-0.5,0-0.8,0.2-0.8,0.6c0,0.4,0.3,0.6,0.8,0.6h3.5c2,0,3.2,1,3.2,2.6c0,1.6-0.9,2.9-3.2,2.9h-3.5
			C389.3,88.6,388.4,87.5,388.4,86.1z M391.8,86.8h3c0.6,0,1.1-0.3,1.1-1c0-0.5-0.4-0.8-1-0.8h-3.1c-0.8,0-1.2,0.4-1.2,0.9
			C390.7,86.4,391,86.8,391.8,86.8z M393.1,80c1.1,0,1.7-0.6,1.7-1.6c0-1-0.7-1.6-1.7-1.6s-1.7,0.6-1.7,1.6
			C391.4,79.4,392.1,80,393.1,80z"/>
		<path class="st0" d="M400.2,77.8h6.3v2.3h-6.3V77.8z"/>
		<path class="st0" d="M408.1,80.7h2.5c0,1.5,1.2,2.4,3.2,2.4c1.7,0,2.8-0.8,2.8-2.2c0-1.1-0.7-1.7-2.2-1.9l-1.7-0.2
			c-2.8-0.4-4.1-1.7-4.1-3.9c0-2.5,2.1-4.2,5.1-4.2c3.2,0,5.2,1.6,5.2,4.1h-2.5c-0.1-1.2-1.1-1.9-2.7-1.9c-1.6,0-2.6,0.7-2.6,1.8
			c0,1,0.7,1.6,2.3,1.8l1.6,0.2c2.7,0.3,4.1,1.7,4.1,4.1c0,2.8-2,4.5-5.3,4.5C410.2,85.3,408.1,83.6,408.1,80.7z"/>
		<path class="st0" d="M420.7,80.2c0-3.1,2-5.2,5-5.2c2.5,0,4.3,1.5,4.5,3.6h-2.4c-0.2-0.8-0.9-1.5-2.1-1.5c-1.5,0-2.5,1.2-2.5,3
			c0,1.9,1,3,2.5,3c1.1,0,1.9-0.7,2.1-1.7h2.4c-0.3,2-1.9,3.8-4.6,3.8C422.5,85.3,420.7,83.1,420.7,80.2z"/>
		<path class="st0" d="M431.9,71h2.4v5c0.6-0.7,1.6-1.1,2.6-1.1c2.4,0,3.9,1.5,3.9,4.2V85h-2.4v-5.7c0-1.5-0.7-2.2-2-2.2
			c-1.3,0-2.2,0.9-2.2,2.3V85h-2.4V71z"/>
		<path class="st0" d="M441.9,75.2h2.5l1.9,7.1l1.9-7.1h2.7l1.9,7.1l1.9-7.1h2.5l-2.9,9.8h-2.8l-1.9-7.1l-1.9,7.1h-2.8L441.9,75.2z"
			/>
		<path class="st0" d="M457.9,80.1c0-3.1,2-5.1,4.8-5.1c2.9,0,4.7,1.9,4.7,5c0,0.3,0,0.7-0.1,1.1h-7.1c0.1,1.5,1.1,2.3,2.5,2.3
			c1,0,1.7-0.5,2-1.2h2.4c-0.6,1.9-2.1,3.1-4.5,3.1C459.9,85.3,457.9,83.2,457.9,80.1z M465.1,79.1L465.1,79.1
			c0-1.3-0.9-2.2-2.3-2.2c-1.4,0-2.4,0.9-2.4,2.2H465.1z"/>
		<path class="st0" d="M469.3,71.1h2.6v2.4h-2.6V71.1z M469.4,75.2h2.4V85h-2.4V75.2z"/>
		<path class="st0" d="M474.3,75.2h2.1v1.1c0.6-1,1.7-1.4,2.9-1.4c2.4,0,3.9,1.5,3.9,4.2V85h-2.4v-5.7c0-1.5-0.7-2.2-2-2.2
			c-1.3,0-2.2,0.9-2.2,2.3V85h-2.4V75.2z"/>
		<path class="st0" d="M489.8,71h3.3v2.1h-2.7c-0.6,0-1,0.3-1,0.9v1.2h3.1v2.1h-3.1V85h-2.4v-7.7h-2.5v-2.1h2.5v-1.5
			C486.9,72,488,71,489.8,71z"/>
		<path class="st0" d="M493.8,81.1v-5.9h2.4v5.7c0,1.5,0.7,2.2,1.9,2.2c1.3,0,2.1-0.9,2.1-2.3v-5.6h2.4V85h-2.1v-0.9
			c-0.6,0.8-1.7,1.2-2.8,1.2C495.3,85.3,493.8,83.8,493.8,81.1z"/>
		<path class="st0" d="M505.1,75.2h2.1v1.7c0.2-1.1,1-1.7,2.2-1.7h1.8v2.1h-2.1c-1.2,0-1.7,0.6-1.7,1.8V85h-2.4V75.2z"/>
		<path class="st0" d="M514.5,82.5v-5.2H512v-2.1h2.5v-2.9h2.4v2.9h3v2.1h-3V82c0,0.6,0.2,0.9,0.9,0.9h2.1V85H517
			C515.3,85,514.5,84.3,514.5,82.5z"/>
	</g>
</g>
</svg>
